<?xml version="1.0" encoding="utf-8"?>
<!-- Generator: Adobe Illustrator 18.0.0, SVG Export Plug-In . SVG Version: 6.00 Build 0)  -->
<!DOCTYPE svg PUBLIC "-//W3C//DTD SVG 1.1//EN" "http://www.w3.org/Graphics/SVG/1.1/DTD/svg11.dtd">
<svg version="1.1" id="Layer_1" xmlns="http://www.w3.org/2000/svg" xmlns:xlink="http://www.w3.org/1999/xlink" x="0px" y="0px"
	 viewBox="0 85 500 330" enable-background="new 0 85 500 330" xml:space="preserve">
<path fill="#FFFFFF" d="M499.1,285.2c-0.9,70.8-57.9,128.2-128.7,128.2S242.1,356,242.1,285.2s57.4-126.4,128.2-128.7
	C444,154.6,500,213.4,499.1,285.2z"/>
<path fill="#FFFFFF" d="M327.8,250c0,90.3-73.1,163.4-163.4,163.4S0.9,340.3,0.9,250S74.1,86.6,164.4,86.6
	C265.7,86.6,327.8,159.7,327.8,250z"/>
<rect x="164.4" y="354.6" fill="#FFFFFF" width="196.8" height="58.8"/>
<path fill="none" stroke="#0098F4" stroke-width="20" stroke-miterlimit="10" d="M371.3,374.1c-49.1,0-89.4-29.2-89.4-89.4"/>
<path fill="#FFFFFF" d="M327.8,250c0,90.3-73.1,163.4-163.4,163.4S0.9,340.3,0.9,250S74.1,86.6,164.4,86.6
	C265.7,86.6,327.8,159.7,327.8,250z"/>
<g>
	<path fill="none" stroke="#0098F4" stroke-width="20" stroke-miterlimit="10" d="M163.9,128.7c77.8,0,121.3,54.2,121.3,121.3"/>
</g>
<g>
	<path fill="none" stroke="#0098F4" stroke-width="20" stroke-miterlimit="10" d="M43.1,250c0-67.1,64.8-121.3,121.3-121.3"/>
</g>
<path fill="none" stroke="#0098F4" stroke-width="20" stroke-miterlimit="10" d="M43.1,250c0,67.1,64.8,121.3,121.3,121.3"/>
<path fill="none" stroke="#414042" stroke-width="4.7067" stroke-miterlimit="10" d="M281,272.7"/>
<path fill="none" stroke="#414042" stroke-width="4.7067" stroke-miterlimit="10" d="M164.4,371.3"/>
<path fill="none" stroke="#0098F4" stroke-width="20" stroke-miterlimit="10" d="M369.4,195.8c60.2,0,89.4,39.8,89.4,89.4"/>
<path fill="none" stroke="#0098F4" stroke-width="20" stroke-miterlimit="10" d="M458.8,284.3c0,49.1-29.2,89.8-89.4,89.8"/>
<path fill="#FFFFFF" d="M245.4,282.4c0-69.4,56.5-125.9,125.9-125.9"/>
<path fill="none" stroke="#414042" stroke-width="4.7067" stroke-miterlimit="10" d="M369.4,195.8"/>
<path fill="none" stroke="#414042" stroke-width="4.7067" stroke-miterlimit="10" d="M280.6,285.2"/>
<path fill="none" stroke="#414042" stroke-width="4.7067" stroke-miterlimit="10" d="M285.2,250"/>
<path fill="none" stroke="#414042" stroke-width="4.7067" stroke-miterlimit="10" d="M164.4,371.3"/>
<path fill="none" stroke="#0098F4" stroke-width="20" stroke-miterlimit="10" d="M164.4,371.3c67.1,0,102.3-41.7,117.1-99.1"/>
<path fill="none" stroke="#0098F4" stroke-width="20" stroke-miterlimit="10" d="M280.6,275c9.3-38.4,41.7-79.2,90.7-79.2"/>
</svg>
